<mxfile host="app.diagrams.net" agent="Mozilla/5.0 (Macintosh; Intel Mac OS X 10_15_7) AppleWebKit/537.36 (KHTML, like Gecko) Chrome/134.0.0.0 Safari/537.36 OPR/119.0.0.0" version="27.1.6">
  <diagram name="Registro y Atención de Pacientes - Actualizado" id="67890">
    <mxGraphModel dx="1513" dy="1006" grid="1" gridSize="10" guides="1" tooltips="1" connect="1" arrows="1" fold="1" page="1" pageScale="1" pageWidth="827" pageHeight="1169" math="0" shadow="0">
      <root>
        <mxCell id="0" />
        <mxCell id="1" parent="0" />
        <mxCell id="pool1" value="Clínica Santa Salud" style="swimlane;horizontal=0;" parent="1" vertex="1">
          <mxGeometry x="20" y="20" width="1100" height="550" as="geometry" />
        </mxCell>
        <mxCell id="lane1" value="Recepción" style="swimlane;horizontal=0;" parent="pool1" vertex="1">
          <mxGeometry width="1100" height="150" as="geometry" />
        </mxCell>
        <mxCell id="start" value="" style="ellipse;whiteSpace=wrap;html=1;aspect=fixed;" parent="lane1" vertex="1">
          <mxGeometry x="40" y="50" width="40" height="40" as="geometry" />
        </mxCell>
        <mxCell id="task1" value="Registrar paciente" style="rounded=1;whiteSpace=wrap;html=1;" parent="lane1" vertex="1">
          <mxGeometry x="100" y="40" width="140" height="60" as="geometry" />
        </mxCell>
        <mxCell id="task2" value="Buscar/Listar paciente" style="rounded=1;whiteSpace=wrap;html=1;" parent="lane1" vertex="1">
          <mxGeometry x="260" y="40" width="160" height="60" as="geometry" />
        </mxCell>
        <mxCell id="task3" value="Generar cita médica" style="rounded=1;whiteSpace=wrap;html=1;" parent="lane1" vertex="1">
          <mxGeometry x="440" y="40" width="150" height="60" as="geometry" />
        </mxCell>
        <mxCell id="flow1" style="endArrow=block;" parent="lane1" source="start" target="task1" edge="1">
          <mxGeometry relative="1" as="geometry" />
        </mxCell>
        <mxCell id="flow2" style="endArrow=block;" parent="lane1" source="task1" target="task2" edge="1">
          <mxGeometry relative="1" as="geometry" />
        </mxCell>
        <mxCell id="flow3" style="endArrow=block;" parent="lane1" source="task2" target="task3" edge="1">
          <mxGeometry relative="1" as="geometry" />
        </mxCell>
        <mxCell id="flow4" style="endArrow=block;" parent="lane1" source="task3" target="task4" edge="1">
          <mxGeometry relative="1" as="geometry" />
        </mxCell>
        <mxCell id="lane2" value="Médico" style="swimlane;horizontal=0;" parent="pool1" vertex="1">
          <mxGeometry y="150" width="1100" height="200" as="geometry" />
        </mxCell>
        <mxCell id="task4" value="Atender paciente" style="rounded=1;whiteSpace=wrap;html=1;" parent="lane2" vertex="1">
          <mxGeometry x="620" y="40" width="140" height="60" as="geometry" />
        </mxCell>
        <mxCell id="task5" value="Registrar historial médico" style="rounded=1;whiteSpace=wrap;html=1;" parent="lane2" vertex="1">
          <mxGeometry x="780" y="40" width="170" height="60" as="geometry" />
        </mxCell>
        <mxCell id="flow5" style="endArrow=block;" parent="lane2" source="task4" target="task5" edge="1">
          <mxGeometry relative="1" as="geometry" />
        </mxCell>
        <mxCell id="flow6" style="endArrow=block;" parent="lane2" source="task5" target="task6" edge="1">
          <mxGeometry relative="1" as="geometry" />
        </mxCell>
        <mxCell id="lane3" value="Archivo" style="swimlane;horizontal=0;" parent="pool1" vertex="1">
          <mxGeometry y="350" width="1100" height="200" as="geometry" />
        </mxCell>
        <mxCell id="task6" value="Generar reporte PDF" style="rounded=1;whiteSpace=wrap;html=1;" parent="lane3" vertex="1">
          <mxGeometry x="795" y="50" width="140" height="60" as="geometry" />
        </mxCell>
        <mxCell id="end" value="" style="ellipse;whiteSpace=wrap;html=1;aspect=fixed;" parent="lane3" vertex="1">
          <mxGeometry x="1000" y="60" width="40" height="40" as="geometry" />
        </mxCell>
        <mxCell id="flow7" style="endArrow=block;" parent="lane3" source="task6" target="end" edge="1">
          <mxGeometry relative="1" as="geometry" />
        </mxCell>
      </root>
    </mxGraphModel>
  </diagram>
</mxfile>
